# xmcd CD database file
#
# Track frame offsets:
#	182
#	21957
#	37385
#	71457
#	103032
#	133395
#	151282
#	169957
#	193382
#	216020
#	236282
#	264245
#	296132
#	317257
#	331745
#
# Disc length: 4524 seconds
#
# Revision: 0
# Processed by: cddbd v1.5.1PL0 Copyright (c) Steve Scherf et al.
# Submitted via: CDex 1.51
#
DISCID=df11aa0f
DTITLE=Various Artist - Les années Jazz Magazine (volume 2)
DYEAR=1994
DGENRE=Jazz
TTITLE0=Bill Evans Trio - Israel
TTITLE1=Jean-Luc Ponty - Sniffin' the blues
TTITLE2=Eddy Louiss - Zafé Ko Ida
TTITLE3=ROland Kirk QUartet feat. Elvin Jones - Rip, Rig and Panic
TTITLE4=Phil Woods ans His European Rythm Machine - Riot
TTITLE5=Archie Shepp - One for Trane - part II (extrait)
TTITLE6=Red Mitchell Trio - Undertow
TTITLE7=Thelonious Monk Quartet - Epistrophy
TTITLE8=Dexter Gordon - The Shadow of your Smile
TTITLE9=Joachim Kühn Group - Bold Music
TTITLE10=Dizzy Gillespie Reunion Big Band - Thnigs to Come
TTITLE11=Albert Ayler - Rollin's Tune (No Moe)
TTITLE12=Sun Ra and His Intergalactic Research Arkestra - Duos
TTITLE13=Alan Shorter - Joseph
TTITLE14=Masabumi Kikuchi and Gil Evans - Ictus
EXTD=YEAR: 1994
EXTT0=
EXTT1=
EXTT2=
EXTT3=
EXTT4=
EXTT5=
EXTT6=
EXTT7=
EXTT8=
EXTT9=
EXTT10=
EXTT11=
EXTT12=
EXTT13=
EXTT14=
PLAYORDER=
